<?xml version="1.0" standalone="no"?>
<!DOCTYPE svg PUBLIC "-//W3C//DTD SVG 20010904//EN"
 "http://www.w3.org/TR/2001/REC-SVG-20010904/DTD/svg10.dtd">
<svg version="1.0" xmlns="http://www.w3.org/2000/svg"
 width="2480.000000pt" height="2480.000000pt" viewBox="0 0 2480.000000 2480.000000"
 preserveAspectRatio="xMidYMid meet">
<metadata>
Created by potrace 1.14, written by Peter Selinger 2001-2017
</metadata>
<g transform="translate(0.000000,2480.000000) scale(0.100000,-0.100000)"
fill="#000000" stroke="none">
<path d="M0 12400 l0 -12400 12400 0 12400 0 0 12400 0 12400 -12400 0 -12400
0 0 -12400z m12850 8790 c1628 -89 3138 -592 4465 -1488 519 -350 910 -677
1376 -1149 798 -807 1445 -1794 1875 -2859 334 -829 524 -1632 611 -2584 26
-281 26 -1137 0 -1425 -105 -1174 -391 -2198 -894 -3205 -272 -546 -555 -998
-916 -1465 -84 -109 -288 -358 -307 -375 -3 -3 -39 -43 -80 -90 -199 -227
-503 -531 -730 -730 -47 -41 -87 -77 -90 -80 -17 -19 -266 -223 -375 -307
-467 -361 -919 -644 -1465 -916 -1007 -503 -2031 -789 -3205 -894 -288 -26
-1144 -26 -1425 0 -539 49 -993 125 -1460 243 -1325 336 -2566 987 -3610 1893
-149 130 -493 462 -641 621 -960 1025 -1655 2248 -2039 3585 -332 1156 -424
2401 -264 3590 34 255 39 289 79 497 259 1370 853 2675 1716 3773 1324 1685
3195 2826 5277 3220 208 40 242 45 497 79 201 27 468 53 680 65 207 12 713 12
925 1z"/>
</g>
</svg>
